<svg version="1.0" xmlns="http://www.w3.org/2000/svg" width="110" height="110" style="enable-background:new 0 0 110 110" xml:space="preserve"><circle style="fill:#87e0c8" cx="55" cy="55" r="55"/><path style="fill:#d7fcf9" d="M27 27h32v56H27z"/><path style="fill:#aaf0e9" d="M59 27h24v44H59z"/><path style="fill:#fff" d="M23 23h64l-4 4H27z"/><path style="fill:#14635b" d="M23 87h36v-4H27z"/><path style="fill:#5dcfc3" d="M59 71h24v16H59z"/><path style="fill:#fff" d="M79 71H63V58a8 8 0 0 1 16 0v13z"/><path style="fill:#00d6c1" d="M66 58a5 5 0 1 1 10 0H66z"/><path style="fill:#aaf0e9" d="M66 60h10v11H66z"/><path style="fill:#d7fcf9" d="M59 83h24v2H59zM59 79h24v2H59zM59 75h24v2H59zM59 71h24v2H59z"/><path style="fill:#00d6c1" d="M71 43c-2.757 0-5-2.243-5-5s2.243-5 5-5 5 2.243 5 5-2.243 5-5 5z"/><path style="fill:#fff" d="M71 33c2.757 0 5 2.243 5 5s-2.243 5-5 5-5-2.243-5-5 2.243-5 5-5m0-2a7 7 0 1 0 0 14 7 7 0 0 0 0-14z"/><path style="fill:#00b8a5" d="M41 78H31V63a5 5 0 1 1 10 0v15z"/><path style="fill:#00b8a5" d="M31 71h10v7H31zM55 78H45V63a5 5 0 1 1 10 0v15z"/><path style="fill:#00b8a5" d="M45 71h10v7H45zM55 51H45V36a5 5 0 1 1 10 0v15z"/><path style="fill:#00b8a5" d="M45 44h10v7H45z"/><path style="fill:#00d6c1" d="M55 37.35V36a5 5 0 1 0-10 0v11.35l10-10z"/><path style="fill:#00d6c1" d="M48.351 44H45v3.35zM41 64.35V63a5 5 0 1 0-10 0v11.35l10-10z"/><path style="fill:#00d6c1" d="M34.351 71H31v3.35zM55 64.35V63a5 5 0 1 0-10 0v11.35l10-10z"/><path style="fill:#00d6c1" d="M48.351 71H45v3.35z"/><path style="fill:#fff" d="M45 42h10v2H45zM31 69h10v2H31zM45 69h10v2H45zM23 51h36v4H27z"/><path style="fill:#00b8a5" d="M41 51H31V36a5 5 0 1 1 10 0v15z"/><path style="fill:#00b8a5" d="M31 44h10v7H31z"/><path style="fill:#00d6c1" d="M41 37.35V36a5 5 0 1 0-10 0v11.35l10-10z"/><path style="fill:#fff" d="M31 42h10v2H31zM83 87h4V65a2 2 0 0 0-4 0v22z"/></svg>