<svg version="1.0" xmlns="http://www.w3.org/2000/svg" width="110" height="110" style="enable-background:new 0 0 110 110" xml:space="preserve"><circle style="fill:#77e0c4" cx="55" cy="55" r="55"/><path style="fill:#d7fcf9" d="M55 87 43 67.997h24z"/><path style="fill:#aaf0e9" d="M58.999 68.031h-8L45 64.279v3.218s0 7.5 10 7.5 10-7.5 10-7.5v-3.219l-6.001 3.753z"/><path style="fill:#d7fcf9" d="M72 47.222C72 46.111 71 45 70 45s-1 1.111-1 1.111V45c-.018-9-1.024-15-14-15-12.976 0-13.982 6-14 15v7.997l4 10 5.105 3.996a2.999 2.999 0 0 0 2.24 1.004h5.31c.856 0 1.671-.365 2.24-1.004L65 62.997l3.206-8.017C71.041 54.776 72 50.476 72 47.222z"/><path style="fill:#fff" d="M41 45v1.111S41 45 40 45s-2 1.111-2 2.222c0 3.253.957 7.554 3.793 7.758L45 62.997l5.105 3.996a2.999 2.999 0 0 0 2.24 1.004H55V30c-12.976 0-13.982 6-14 15z"/><path style="fill:#d7fcf9" d="m47.999 60.031.012-.034h-1.029l.017.034zM54.999 68.031h-4L45 64.279v3.218s0 7.5 10 7.5l-.001-6.966z"/><path style="fill:#0a3631" d="M67.807 34.274c.098-.418.146-.84.146-1.262 0-2.842-.908-4.783-12.953-4.972v-.024c-.634-.01-1.289-.016-1.985-.016-12.511 0-13.042 7.981-13.014 9.679.003.203.014.322.014.322v7.03l2 4v7l.984 6.997 8 5.003h8l8-5.003.984-6.997v-7h.031l2-4V40c.001-1.977-.739-3.945-2.207-5.726zm-4.808 25.757h-1l-2-6h-10l-2 6h-1l-3-6V37.673c3.339 2.246 6.812 2.372 11 2.355v-.003c2.604-.012 7.891.031 11-2.787v16.793l-3 6z"/><path style="fill:#14635b" d="M55 40.028V28.016c-.633-.01-1.288-.016-1.984-.016-14 0-13 10-13 10v7.031l2 4v7L43 63.028l8 5.003h4v-14h-5l-2 6h-1l-3-6V37.665c2.189 1.472 3.935 2.39 11 2.363z"/><path style="fill:#0a3631" d="M52 46.997a2 2 0 0 0-2-2l-.006.001c.001.021.006.041.006.062a2 2 0 0 1-1.994 1.999A1.996 1.996 0 0 0 52 46.997zM61.994 46.997a2 2 0 0 0-2-2l-.006.001c.001.021.006.041.006.062A2 2 0 0 1 58 47.059a1.996 1.996 0 0 0 3.994-.062z"/><path style="fill:#fff" d="m43 67.997 2-1 9.985 4.981L49 77.997zM67 67.997l-2-1-9.985 4.981L61 77.997z"/><path style="fill:#00b8a5" d="m59 87-2.799-10.2 1.798-1.798-3.018-3.024-2.998 2.998 1.818 1.818L51 87z"/><path style="fill:#00d6c1" d="M55 87V71.997l-.019-.019-2.998 2.998 1.818 1.818L51 87z"/><path style="fill:#0a3631" d="m23 87 4-11a5.997 5.997 0 0 1 3.043-2.982L43 68l12 19H23zM87 87l-4-11a5.997 5.997 0 0 0-3.043-2.982L67 68 55 87h32z"/><path style="fill:#fff" d="M66 79.997h10v2H66z"/><path style="fill:#d7fcf9" d="M51 56.997h8S59 61 55 61s-4-4.003-4-4.003z"/></svg>