<svg version="1.0" xmlns="http://www.w3.org/2000/svg" width="110" height="110" style="enable-background:new 0 0 110 110" xml:space="preserve"><circle style="fill:#87e0c8" cx="55" cy="55" r="55"/><path style="fill:#aaf0e9" d="M23 69.002h64v18H23z"/><path style="fill:#d7fcf9" d="m23 69.002 8-16h48l8 16z"/><path style="fill:#00b8a5" d="m28 67.002 6-12h42l6 12z"/><circle style="fill:#aaf0e9" cx="71" cy="61.002" r="1"/><circle style="fill:#aaf0e9" cx="39" cy="61.002" r="1"/><ellipse style="fill:#aaf0e9" cx="55" cy="61.002" rx="6" ry="5"/><path style="fill:#00d6c1" d="M54.96 57.521c.272 0 .488.18.488.407v.109c.507.062.958.188 1.361.376.178.086.338.235.338.47 0 .297-.282.524-.638.524a.778.778 0 0 1-.328-.071 4.081 4.081 0 0 0-.779-.266v1.19c1.427.321 2.037.806 2.037 1.683s-.807 1.441-1.99 1.55v.415c0 .227-.216.407-.488.407s-.488-.18-.488-.407v-.423a5.31 5.31 0 0 1-1.849-.548c-.197-.102-.319-.258-.319-.47 0-.305.282-.532.647-.532.122 0 .253.039.366.102.394.211.77.36 1.201.438V61.23c-1.352-.305-2.017-.736-2.017-1.668 0-.861.788-1.44 1.971-1.542v-.094c0-.225.215-.405.487-.405zm-.441 2.536V59c-.45.055-.647.243-.647.493 0 .244.131.408.647.564zm.882 1.371v1.088c.441-.055.667-.227.667-.509 0-.259-.16-.431-.667-.579z"/><path style="fill:#d7fcf9" d="M23 71.002h64v2H23zM23 75.002h64v2H23zM23 79.002h64v2H23zM23 83.002h64v2H23zM23 71.002h21.527l2-2H23zM23 75.002h17.527l2-2H23zM23 85.002v2h5.527l2-2zM23 79.002h13.527l2-2H23zM23 83.002h9.527l2-2H23z"/><path style="fill:#fff" d="M23 69.002h23.527l2-2H28l6-12h26.527l2-2H31z"/><path style="fill:#00d6c1" d="M49 61.002c0-2.761 2.687-5 6-5 1.331 0 2.556.365 3.551.976l1.976-1.976H34l-6 12h20.527l2.364-2.364C49.729 63.726 49 62.436 49 61.002zm-10 1a1 1 0 1 1 0-2 1 1 0 0 1 0 2z"/><circle style="fill:#fff" cx="39" cy="61.002" r="1"/><path style="fill:#fff" d="M49 61.002c0 1.435.729 2.725 1.891 3.636l1.715-1.715c-.184-.102-.301-.251-.301-.454 0-.305.282-.532.647-.532.122 0 .253.039.366.102.04.021.079.034.118.054l.906-.905c-1.228-.303-1.84-.734-1.84-1.622 0-.861.788-1.44 1.971-1.542v-.094c0-.227.216-.407.488-.407s.488.18.488.407v.109c.507.062.958.188 1.361.376a.748.748 0 0 1 .18.126l1.562-1.562a6.786 6.786 0 0 0-3.551-.976C51.686 56.002 49 58.24 49 61.002z"/><path style="fill:#fff" d="M55.401 59.071v1.056l.788-.788c-.003-.001-.006 0-.009-.002a4.035 4.035 0 0 0-.779-.266zM53.872 59.494c0 .243.131.407.647.564v-1.057c-.45.054-.647.242-.647.493zM23 73.002h19.527l2-2H23zM23 77.002h15.527l2-2H23zM23 81.002h11.527l2-2H23zM23 85.002h7.527l2-2H23z"/><path style="fill:#009687" d="m69.663 28.646 4.225 4.225L65 41.759l-10-10-21.242 21.243h8.484L55 40.244l10 10 13.13-13.13 4.225 4.225L87 24.002z"/></svg>