<svg version="1.0" xmlns="http://www.w3.org/2000/svg" width="110" height="110" style="enable-background:new 0 0 110 110" xml:space="preserve"><circle style="fill:#87e0c8" cx="55" cy="55" r="55"/><path style="fill:#fff" d="M37 27h50v60H37z"/><path style="fill:#00d6c1" d="M65.725 73a8 8 0 0 0 8 8c4.418 0 8.415-3.601 8-8-.423-4.476-3.894-8.042-8-8-4.419.046-8 3.582-8 8z"/><path style="fill:#009687" d="M65.725 73c0 4.42 3.58 8 8 8a8 8 0 0 0 7.42-5l-14.78-6.153a7.99 7.99 0 0 0-.64 3.153z"/><path style="fill:#aaf0e9" d="M65.712 73.003a8 8 0 0 0 3.667 6.727l4.327-6.82-7.353-3.06a7.974 7.974 0 0 0-.641 3.153z"/><path style="fill:#3e948b" d="m66.364 69.847 7.36 3.067V65c-3.3 0-6.133 2-7.36 4.847z"/><path style="fill:#00b8a5" d="M77 40h4v18h-4z"/><path style="fill:#00d6c1" d="M69.712 48h4v10h-4z"/><circle style="fill:#00d6c1" cx="60.333" cy="68.167" r="1.5"/><path style="fill:#aaf0e9" d="M46.712 67.667h10v1h-10z"/><circle style="fill:#00d6c1" cx="60.333" cy="73.333" r="1.5"/><path style="fill:#aaf0e9" d="M46.712 72.833h10v1h-10z"/><circle style="fill:#00d6c1" cx="60.333" cy="78.5" r="1.5"/><path style="fill:#aaf0e9" d="M46.712 78h10v1h-10z"/><path style="fill:#0a3631" d="M39.742 58.021 28.944 68.819a3.441 3.441 0 1 1-4.867-4.867L34.899 53.13a14.478 14.478 0 0 0 4.843 4.891z"/><path style="fill:#14635b" d="m36.992 55.826-12.951 12.95a3.439 3.439 0 0 1 .03-4.824l10.828-10.828c.59.98 1.296 1.886 2.093 2.702z"/><path style="fill:#fff" d="M47.4 60.1c-7.995 0-14.5-6.505-14.5-14.5s6.505-14.5 14.5-14.5 14.5 6.505 14.5 14.5-6.504 14.5-14.5 14.5z"/><path style="fill:#5dcfc3" d="M47.5 30.988c8.012 0 14.512 6.5 14.512 14.512s-6.5 14.512-14.512 14.512c-8.041 0-14.512-6.561-14.512-14.512 0-8.012 6.5-14.512 14.512-14.512m0-1.988C38.402 29 31 36.402 31 45.5 31 54.599 38.402 62 47.5 62S64 54.599 64 45.5C64 36.402 56.598 29 47.5 29z"/><circle style="fill:#00b8a5" cx="47.4" cy="45.6" r="11.558"/><path style="fill:#00d6c1" d="M47.4 34.042c-6.383 0-11.558 5.175-11.558 11.558 0 3.158 1.27 6.018 3.323 8.104l16.339-16.339a11.516 11.516 0 0 0-8.104-3.323z"/></svg>