<svg version="1.0" xmlns="http://www.w3.org/2000/svg" width="110" height="110" style="enable-background:new 0 0 110 110" xml:space="preserve"><circle style="fill:#87e0c8" cx="55" cy="55" r="55"/><path style="fill:#fff" d="M23 26.84A3.84 3.84 0 0 1 26.84 23H55l16 13.44v46.72A3.84 3.84 0 0 1 67.16 87H26.84A3.84 3.84 0 0 1 23 83.16V26.84z"/><path style="fill:#aaf0e9" d="M55 23v9.6a3.84 3.84 0 0 0 3.84 3.84H71L55 23z"/><path style="fill:#fff" d="M77 41.5 82 31l5 10.5V80H77z"/><path style="fill:#d7fcf9" d="M87 47v-5.5L82 31v16zM87 84a3 3 0 0 1-3 3h-4a3 3 0 0 1-3-3v-2h10v2z"/><path style="fill:#aaf0e9" d="M62 45c0 .55-.45 1-1 1H46c-.55 0-1-.45-1-1s.45-1 1-1h15c.55 0 1 .45 1 1zM56 50c0 .55-.45 1-1 1h-9c-.55 0-1-.45-1-1s.45-1 1-1h9c.55 0 1 .45 1 1zM62 58c0 .55-.45 1-1 1H46c-.55 0-1-.45-1-1s.45-1 1-1h15c.55 0 1 .45 1 1zM56 63c0 .55-.45 1-1 1h-9c-.55 0-1-.45-1-1s.45-1 1-1h9c.55 0 1 .45 1 1zM62 71c0 .55-.45 1-1 1H46c-.55 0-1-.45-1-1s.45-1 1-1h15c.55 0 1 .45 1 1zM56 76c0 .55-.45 1-1 1h-9c-.55 0-1-.45-1-1s.45-1 1-1h9c.55 0 1 .45 1 1z"/><path style="fill:#00b8a5" d="m35.067 52-3.774-3.774a.999.999 0 1 1 1.414-1.414l2.226 2.226 4.299-5.159a1 1 0 0 1 1.536 1.28L35.067 52zM35.067 65l-3.774-3.774a.999.999 0 1 1 1.414-1.414l2.226 2.226 4.299-5.159a1 1 0 0 1 1.536 1.28L35.067 65zM35.067 78l-3.774-3.774a.999.999 0 1 1 1.414-1.414l2.226 2.226 4.299-5.159a1 1 0 0 1 1.536 1.28L35.067 78z"/><path style="fill:#14635b" d="M77 79h10v3H77z"/><path style="fill:#3e948b" d="M77 80h5v2h-5z"/><path style="fill:#0a3631" d="m82.013 30.984-1.857 3.899c.512.678 1.152 1.101 1.857 1.101.705 0 1.345-.423 1.857-1.101l-1.857-3.899z"/><path style="fill:#009687" d="M84.5 43a2.503 2.503 0 0 1-2.414-1.845c-.026-.097-.147-.097-.173 0a2.5 2.5 0 0 1-4.735.275.092.092 0 0 0-.178.034V80h10V41.464a.092.092 0 0 0-.178-.034c-.37.92-1.27 1.57-2.322 1.57z"/><path style="fill:#00b8a5" d="M77 80V41.494c0-.112.146-.14.19-.037a2.5 2.5 0 0 0 4.727-.315c.013-.053.083-.046.083.007V80h-5z"/><path style="fill:#fff" d="M77 82v2a3 3 0 0 0 3 3h2v-5h-5z"/></svg>