<svg version="1.0" xmlns="http://www.w3.org/2000/svg" width="110" height="110" style="enable-background:new 0 0 110 110" xml:space="preserve"><circle style="fill:#87e0c8" cx="55" cy="55" r="55"/><path style="fill:#0a3631" d="m77.004 23-6.364 6.364a1.995 1.995 0 0 0-.2 2.584l-15.612 7.571-2.791 17.009 1.337 1.338 17.009-2.79 7.571-15.612a1.996 1.996 0 0 0 2.584-.199l6.364-6.364L77.004 23z"/><path style="fill:#d7fcf9" d="m70.44 31.948-15.612 7.571-2.791 17.009 1.337 1.338 17.009-2.79 7.571-15.612c-.083-.062-7.452-7.432-7.514-7.516z"/><path style="fill:#009687" d="M44 76.917v-14h-2v14a5.007 5.007 0 0 0-4 4.898c0 2.757 2.243 5 5 5s5-2.243 5-5a5.007 5.007 0 0 0-4-4.898zM42 32.917v23h2v-23a5.009 5.009 0 0 0 4-4.899c0-2.757-2.243-5-5-5s-5 2.243-5 5a5.009 5.009 0 0 0 4 4.899z"/><path style="fill:#fff" d="M79 79v2.918c-14.826-.548-25.5-4.185-30.981-10.619-2.512-2.949-3.516-5.995-3.895-8.299H47v-8h-3.137C42.826 39.086 35.654 33.713 31 31.912V28h-8v8h8v-1.947c4.076 1.844 9.921 6.936 10.862 20.947H39v8h3.084c.376 2.612 1.468 6.12 4.374 9.551C52.399 79.564 63.344 83.377 79 83.924V87h8v-8h-8z"/><path style="fill:#fff" d="m70.44 31.948-15.612 7.571-2.791 17.009.715.715 21.482-21.482a617.409 617.409 0 0 1-3.794-3.813z"/><path style="fill:#14635b" d="M74.235 35.761 82 27.996 77.004 23l-6.364 6.364a1.995 1.995 0 0 0-.2 2.584c.031.042 1.919 1.937 3.795 3.813z"/></svg>